G04 #@! TF.GenerationSoftware,KiCad,Pcbnew,7.0.2-0*
G04 #@! TF.CreationDate,2024-04-11T22:45:53+02:00*
G04 #@! TF.ProjectId,2600ish Panel,32363030-6973-4682-9050-616e656c2e6b,rev?*
G04 #@! TF.SameCoordinates,Original*
G04 #@! TF.FileFunction,Legend,Bot*
G04 #@! TF.FilePolarity,Positive*
%FSLAX46Y46*%
G04 Gerber Fmt 4.6, Leading zero omitted, Abs format (unit mm)*
G04 Created by KiCad (PCBNEW 7.0.2-0) date 2024-04-11 22:45:53*
%MOMM*%
%LPD*%
G01*
G04 APERTURE LIST*
%ADD10C,0.150000*%
G04 APERTURE END LIST*
D10*
X188177142Y-149417619D02*
X187939047Y-150417619D01*
X187939047Y-150417619D02*
X187748571Y-149703333D01*
X187748571Y-149703333D02*
X187558095Y-150417619D01*
X187558095Y-150417619D02*
X187320000Y-149417619D01*
X186510476Y-150417619D02*
X186510476Y-149893809D01*
X186510476Y-149893809D02*
X186558095Y-149798571D01*
X186558095Y-149798571D02*
X186653333Y-149750952D01*
X186653333Y-149750952D02*
X186843809Y-149750952D01*
X186843809Y-149750952D02*
X186939047Y-149798571D01*
X186510476Y-150370000D02*
X186605714Y-150417619D01*
X186605714Y-150417619D02*
X186843809Y-150417619D01*
X186843809Y-150417619D02*
X186939047Y-150370000D01*
X186939047Y-150370000D02*
X186986666Y-150274761D01*
X186986666Y-150274761D02*
X186986666Y-150179523D01*
X186986666Y-150179523D02*
X186939047Y-150084285D01*
X186939047Y-150084285D02*
X186843809Y-150036666D01*
X186843809Y-150036666D02*
X186605714Y-150036666D01*
X186605714Y-150036666D02*
X186510476Y-149989047D01*
X186129523Y-149750952D02*
X185891428Y-150417619D01*
X185653333Y-149750952D02*
X185891428Y-150417619D01*
X185891428Y-150417619D02*
X185986666Y-150655714D01*
X185986666Y-150655714D02*
X186034285Y-150703333D01*
X186034285Y-150703333D02*
X186129523Y-150750952D01*
X185367618Y-149417619D02*
X185129523Y-150417619D01*
X185129523Y-150417619D02*
X184939047Y-149703333D01*
X184939047Y-149703333D02*
X184748571Y-150417619D01*
X184748571Y-150417619D02*
X184510476Y-149417619D01*
X183700952Y-150417619D02*
X183700952Y-149893809D01*
X183700952Y-149893809D02*
X183748571Y-149798571D01*
X183748571Y-149798571D02*
X183843809Y-149750952D01*
X183843809Y-149750952D02*
X184034285Y-149750952D01*
X184034285Y-149750952D02*
X184129523Y-149798571D01*
X183700952Y-150370000D02*
X183796190Y-150417619D01*
X183796190Y-150417619D02*
X184034285Y-150417619D01*
X184034285Y-150417619D02*
X184129523Y-150370000D01*
X184129523Y-150370000D02*
X184177142Y-150274761D01*
X184177142Y-150274761D02*
X184177142Y-150179523D01*
X184177142Y-150179523D02*
X184129523Y-150084285D01*
X184129523Y-150084285D02*
X184034285Y-150036666D01*
X184034285Y-150036666D02*
X183796190Y-150036666D01*
X183796190Y-150036666D02*
X183700952Y-149989047D01*
X183319999Y-149750952D02*
X183081904Y-150417619D01*
X182843809Y-149750952D02*
X183081904Y-150417619D01*
X183081904Y-150417619D02*
X183177142Y-150655714D01*
X183177142Y-150655714D02*
X183224761Y-150703333D01*
X183224761Y-150703333D02*
X183319999Y-150750952D01*
X182558094Y-149417619D02*
X182319999Y-150417619D01*
X182319999Y-150417619D02*
X182129523Y-149703333D01*
X182129523Y-149703333D02*
X181939047Y-150417619D01*
X181939047Y-150417619D02*
X181700952Y-149417619D01*
X180891428Y-150417619D02*
X180891428Y-149893809D01*
X180891428Y-149893809D02*
X180939047Y-149798571D01*
X180939047Y-149798571D02*
X181034285Y-149750952D01*
X181034285Y-149750952D02*
X181224761Y-149750952D01*
X181224761Y-149750952D02*
X181319999Y-149798571D01*
X180891428Y-150370000D02*
X180986666Y-150417619D01*
X180986666Y-150417619D02*
X181224761Y-150417619D01*
X181224761Y-150417619D02*
X181319999Y-150370000D01*
X181319999Y-150370000D02*
X181367618Y-150274761D01*
X181367618Y-150274761D02*
X181367618Y-150179523D01*
X181367618Y-150179523D02*
X181319999Y-150084285D01*
X181319999Y-150084285D02*
X181224761Y-150036666D01*
X181224761Y-150036666D02*
X180986666Y-150036666D01*
X180986666Y-150036666D02*
X180891428Y-149989047D01*
X180510475Y-149750952D02*
X180272380Y-150417619D01*
X180034285Y-149750952D02*
X180272380Y-150417619D01*
X180272380Y-150417619D02*
X180367618Y-150655714D01*
X180367618Y-150655714D02*
X180415237Y-150703333D01*
X180415237Y-150703333D02*
X180510475Y-150750952D01*
M02*
