G04 #@! TF.GenerationSoftware,KiCad,Pcbnew,7.0.2-0*
G04 #@! TF.CreationDate,2024-03-31T22:48:25+02:00*
G04 #@! TF.ProjectId,2600ish Panel,32363030-6973-4682-9050-616e656c2e6b,rev?*
G04 #@! TF.SameCoordinates,Original*
G04 #@! TF.FileFunction,Copper,L1,Top*
G04 #@! TF.FilePolarity,Positive*
%FSLAX46Y46*%
G04 Gerber Fmt 4.6, Leading zero omitted, Abs format (unit mm)*
G04 Created by KiCad (PCBNEW 7.0.2-0) date 2024-03-31 22:48:25*
%MOMM*%
%LPD*%
G01*
G04 APERTURE LIST*
G04 APERTURE END LIST*
G04 #@! TA.AperFunction,NonConductor*
G36*
X209342539Y-24520185D02*
G01*
X209388294Y-24572989D01*
X209399500Y-24624500D01*
X209399500Y-152875500D01*
X209379815Y-152942539D01*
X209327011Y-152988294D01*
X209275500Y-152999500D01*
X159024500Y-152999500D01*
X158957461Y-152979815D01*
X158911706Y-152927011D01*
X158900500Y-152875500D01*
X158900500Y-149999999D01*
X164794551Y-149999999D01*
X164814317Y-150251149D01*
X164873126Y-150496110D01*
X164921330Y-150612485D01*
X164969534Y-150728859D01*
X165101164Y-150943659D01*
X165264776Y-151135224D01*
X165456341Y-151298836D01*
X165671141Y-151430466D01*
X165903889Y-151526873D01*
X166148852Y-151585683D01*
X166400000Y-151605449D01*
X166651148Y-151585683D01*
X166896111Y-151526873D01*
X167128859Y-151430466D01*
X167343659Y-151298836D01*
X167535224Y-151135224D01*
X167698836Y-150943659D01*
X167830466Y-150728859D01*
X167926873Y-150496111D01*
X167985683Y-150251148D01*
X168005449Y-150000000D01*
X168005449Y-149999999D01*
X200294551Y-149999999D01*
X200314317Y-150251149D01*
X200373126Y-150496110D01*
X200421330Y-150612485D01*
X200469534Y-150728859D01*
X200601164Y-150943659D01*
X200764776Y-151135224D01*
X200956341Y-151298836D01*
X201171141Y-151430466D01*
X201403889Y-151526873D01*
X201648852Y-151585683D01*
X201900000Y-151605449D01*
X202151148Y-151585683D01*
X202396111Y-151526873D01*
X202628859Y-151430466D01*
X202843659Y-151298836D01*
X203035224Y-151135224D01*
X203198836Y-150943659D01*
X203330466Y-150728859D01*
X203426873Y-150496111D01*
X203485683Y-150251148D01*
X203505449Y-150000000D01*
X203485683Y-149748852D01*
X203426873Y-149503889D01*
X203330466Y-149271141D01*
X203198836Y-149056341D01*
X203035224Y-148864776D01*
X202843659Y-148701164D01*
X202628859Y-148569534D01*
X202512484Y-148521330D01*
X202396110Y-148473126D01*
X202151149Y-148414317D01*
X201900000Y-148394551D01*
X201648850Y-148414317D01*
X201403889Y-148473126D01*
X201171139Y-148569535D01*
X200956342Y-148701163D01*
X200764776Y-148864776D01*
X200601163Y-149056342D01*
X200469535Y-149271139D01*
X200373126Y-149503889D01*
X200314317Y-149748850D01*
X200294551Y-149999999D01*
X168005449Y-149999999D01*
X167985683Y-149748852D01*
X167926873Y-149503889D01*
X167830466Y-149271141D01*
X167698836Y-149056341D01*
X167535224Y-148864776D01*
X167343659Y-148701164D01*
X167128859Y-148569534D01*
X167012484Y-148521330D01*
X166896110Y-148473126D01*
X166651149Y-148414317D01*
X166400000Y-148394551D01*
X166148850Y-148414317D01*
X165903889Y-148473126D01*
X165671139Y-148569535D01*
X165456342Y-148701163D01*
X165264776Y-148864776D01*
X165101163Y-149056342D01*
X164969535Y-149271139D01*
X164873126Y-149503889D01*
X164814317Y-149748850D01*
X164794551Y-149999999D01*
X158900500Y-149999999D01*
X158900500Y-130620298D01*
X163365793Y-130620298D01*
X163365887Y-130623713D01*
X163365887Y-130623719D01*
X163375581Y-130975411D01*
X163375582Y-130975423D01*
X163375676Y-130978832D01*
X163376143Y-130982205D01*
X163376145Y-130982220D01*
X163401789Y-131167147D01*
X163424941Y-131334103D01*
X163425776Y-131337402D01*
X163425778Y-131337410D01*
X163512151Y-131678491D01*
X163512153Y-131678500D01*
X163512989Y-131681798D01*
X163514186Y-131684996D01*
X163514187Y-131684998D01*
X163636151Y-132010752D01*
X163638752Y-132017697D01*
X163640297Y-132020751D01*
X163640298Y-132020752D01*
X163797090Y-132330581D01*
X163800704Y-132337721D01*
X163802567Y-132340574D01*
X163802572Y-132340581D01*
X163992062Y-132630617D01*
X163996878Y-132637988D01*
X163999041Y-132640615D01*
X163999043Y-132640617D01*
X164107305Y-132772073D01*
X164224893Y-132914852D01*
X164227336Y-132917228D01*
X164227341Y-132917234D01*
X164473864Y-133157055D01*
X164481981Y-133164951D01*
X164484682Y-133167053D01*
X164484684Y-133167055D01*
X164618168Y-133270950D01*
X164765022Y-133385251D01*
X165070580Y-133573077D01*
X165394946Y-133726149D01*
X165551765Y-133779985D01*
X165730952Y-133841500D01*
X165730955Y-133841500D01*
X165734183Y-133842609D01*
X165737512Y-133843355D01*
X166080829Y-133920294D01*
X166080832Y-133920294D01*
X166084172Y-133921043D01*
X166440665Y-133960500D01*
X166444094Y-133960500D01*
X166707892Y-133960500D01*
X166709595Y-133960500D01*
X166978125Y-133945685D01*
X167331904Y-133886650D01*
X167677041Y-133789054D01*
X168009346Y-133654083D01*
X168324787Y-133483375D01*
X168619534Y-133279002D01*
X168890010Y-133043445D01*
X169132931Y-132779562D01*
X169345348Y-132490559D01*
X169524683Y-132179941D01*
X169668759Y-131851481D01*
X169775827Y-131509164D01*
X169844588Y-131157147D01*
X169874207Y-130799702D01*
X169869537Y-130630298D01*
X175045793Y-130630298D01*
X175045887Y-130633713D01*
X175045887Y-130633719D01*
X175055581Y-130985411D01*
X175055582Y-130985423D01*
X175055676Y-130988832D01*
X175056143Y-130992205D01*
X175056145Y-130992220D01*
X175102626Y-131327410D01*
X175104941Y-131344103D01*
X175105776Y-131347402D01*
X175105778Y-131347410D01*
X175192151Y-131688491D01*
X175192153Y-131688500D01*
X175192989Y-131691798D01*
X175194186Y-131694996D01*
X175194187Y-131694998D01*
X175316151Y-132020752D01*
X175318752Y-132027697D01*
X175320297Y-132030751D01*
X175320298Y-132030752D01*
X175477090Y-132340581D01*
X175480704Y-132347721D01*
X175482567Y-132350574D01*
X175482572Y-132350581D01*
X175672062Y-132640617D01*
X175676878Y-132647988D01*
X175679041Y-132650615D01*
X175679043Y-132650617D01*
X175787305Y-132782073D01*
X175904893Y-132924852D01*
X175907336Y-132927228D01*
X175907341Y-132927234D01*
X176153864Y-133167055D01*
X176161981Y-133174951D01*
X176164682Y-133177053D01*
X176164684Y-133177055D01*
X176298168Y-133280950D01*
X176445022Y-133395251D01*
X176750580Y-133583077D01*
X177074946Y-133736149D01*
X177231765Y-133789985D01*
X177410952Y-133851500D01*
X177410955Y-133851500D01*
X177414183Y-133852609D01*
X177417512Y-133853355D01*
X177760829Y-133930294D01*
X177760832Y-133930294D01*
X177764172Y-133931043D01*
X178120665Y-133970500D01*
X178124094Y-133970500D01*
X178387892Y-133970500D01*
X178389595Y-133970500D01*
X178658125Y-133955685D01*
X179011904Y-133896650D01*
X179357041Y-133799054D01*
X179689346Y-133664083D01*
X180004787Y-133493375D01*
X180299534Y-133289002D01*
X180570010Y-133053445D01*
X180812931Y-132789562D01*
X181025348Y-132500559D01*
X181204683Y-132189941D01*
X181348759Y-131861481D01*
X181455827Y-131519164D01*
X181524588Y-131167147D01*
X181554207Y-130809702D01*
X181548710Y-130610298D01*
X186745793Y-130610298D01*
X186745887Y-130613713D01*
X186745887Y-130613719D01*
X186755581Y-130965411D01*
X186755582Y-130965423D01*
X186755676Y-130968832D01*
X186756143Y-130972205D01*
X186756145Y-130972220D01*
X186804472Y-131320722D01*
X186804941Y-131324103D01*
X186805776Y-131327402D01*
X186805778Y-131327410D01*
X186892151Y-131668491D01*
X186892153Y-131668500D01*
X186892989Y-131671798D01*
X186894186Y-131674996D01*
X186894187Y-131674998D01*
X186965180Y-131864614D01*
X187018752Y-132007697D01*
X187020297Y-132010751D01*
X187020298Y-132010752D01*
X187112476Y-132192901D01*
X187180704Y-132327721D01*
X187182567Y-132330574D01*
X187182572Y-132330581D01*
X187375015Y-132625137D01*
X187376878Y-132627988D01*
X187379041Y-132630615D01*
X187379043Y-132630617D01*
X187387279Y-132640617D01*
X187604893Y-132904852D01*
X187607336Y-132907228D01*
X187607341Y-132907234D01*
X187755051Y-133050928D01*
X187861981Y-133154951D01*
X188145022Y-133375251D01*
X188450580Y-133563077D01*
X188774946Y-133716149D01*
X188954425Y-133777764D01*
X189110952Y-133831500D01*
X189110955Y-133831500D01*
X189114183Y-133832609D01*
X189117512Y-133833355D01*
X189460829Y-133910294D01*
X189460832Y-133910294D01*
X189464172Y-133911043D01*
X189820665Y-133950500D01*
X189824094Y-133950500D01*
X190087892Y-133950500D01*
X190089595Y-133950500D01*
X190358125Y-133935685D01*
X190711904Y-133876650D01*
X191057041Y-133779054D01*
X191389346Y-133644083D01*
X191704787Y-133473375D01*
X191999534Y-133269002D01*
X192270010Y-133033445D01*
X192512931Y-132769562D01*
X192725348Y-132480559D01*
X192904683Y-132169941D01*
X193048759Y-131841481D01*
X193155827Y-131499164D01*
X193224588Y-131147147D01*
X193254207Y-130789702D01*
X193249262Y-130610298D01*
X198415793Y-130610298D01*
X198415887Y-130613713D01*
X198415887Y-130613719D01*
X198425581Y-130965411D01*
X198425582Y-130965423D01*
X198425676Y-130968832D01*
X198426143Y-130972205D01*
X198426145Y-130972220D01*
X198474472Y-131320722D01*
X198474941Y-131324103D01*
X198475776Y-131327402D01*
X198475778Y-131327410D01*
X198562151Y-131668491D01*
X198562153Y-131668500D01*
X198562989Y-131671798D01*
X198564186Y-131674996D01*
X198564187Y-131674998D01*
X198635180Y-131864614D01*
X198688752Y-132007697D01*
X198690297Y-132010751D01*
X198690298Y-132010752D01*
X198782476Y-132192901D01*
X198850704Y-132327721D01*
X198852567Y-132330574D01*
X198852572Y-132330581D01*
X199045015Y-132625137D01*
X199046878Y-132627988D01*
X199049041Y-132630615D01*
X199049043Y-132630617D01*
X199057279Y-132640617D01*
X199274893Y-132904852D01*
X199277336Y-132907228D01*
X199277341Y-132907234D01*
X199425051Y-133050928D01*
X199531981Y-133154951D01*
X199815022Y-133375251D01*
X200120580Y-133563077D01*
X200444946Y-133716149D01*
X200624425Y-133777764D01*
X200780952Y-133831500D01*
X200780955Y-133831500D01*
X200784183Y-133832609D01*
X200787512Y-133833355D01*
X201130829Y-133910294D01*
X201130832Y-133910294D01*
X201134172Y-133911043D01*
X201490665Y-133950500D01*
X201494094Y-133950500D01*
X201757892Y-133950500D01*
X201759595Y-133950500D01*
X202028125Y-133935685D01*
X202381904Y-133876650D01*
X202727041Y-133779054D01*
X203059346Y-133644083D01*
X203374787Y-133473375D01*
X203669534Y-133269002D01*
X203940010Y-133033445D01*
X204182931Y-132769562D01*
X204395348Y-132480559D01*
X204574683Y-132169941D01*
X204718759Y-131841481D01*
X204825827Y-131499164D01*
X204894588Y-131147147D01*
X204924207Y-130789702D01*
X204914324Y-130431168D01*
X204865059Y-130075897D01*
X204777011Y-129728202D01*
X204651248Y-129392303D01*
X204489296Y-129072279D01*
X204394175Y-128926686D01*
X204294984Y-128774862D01*
X204294983Y-128774861D01*
X204293122Y-128772012D01*
X204065107Y-128495148D01*
X204062663Y-128492770D01*
X204062658Y-128492765D01*
X203810470Y-128247433D01*
X203810466Y-128247429D01*
X203808019Y-128245049D01*
X203687182Y-128150998D01*
X203527679Y-128026851D01*
X203527675Y-128026848D01*
X203524978Y-128024749D01*
X203397885Y-127946625D01*
X203222328Y-127838710D01*
X203222320Y-127838706D01*
X203219420Y-127836923D01*
X203216334Y-127835467D01*
X203216331Y-127835465D01*
X202935074Y-127702737D01*
X202895054Y-127683851D01*
X202891815Y-127682739D01*
X202891810Y-127682737D01*
X202559047Y-127568499D01*
X202559032Y-127568494D01*
X202555817Y-127567391D01*
X202552499Y-127566647D01*
X202552487Y-127566644D01*
X202209170Y-127489705D01*
X202209153Y-127489702D01*
X202205828Y-127488957D01*
X202202428Y-127488580D01*
X202202418Y-127488579D01*
X201852747Y-127449877D01*
X201852735Y-127449876D01*
X201849335Y-127449500D01*
X201580405Y-127449500D01*
X201578729Y-127449592D01*
X201578709Y-127449593D01*
X201315277Y-127464127D01*
X201315271Y-127464127D01*
X201311875Y-127464315D01*
X201308531Y-127464873D01*
X201308513Y-127464875D01*
X200961465Y-127522787D01*
X200961450Y-127522790D01*
X200958096Y-127523350D01*
X200954819Y-127524276D01*
X200954804Y-127524280D01*
X200616253Y-127620014D01*
X200616244Y-127620017D01*
X200612959Y-127620946D01*
X200609787Y-127622234D01*
X200609785Y-127622235D01*
X200283828Y-127754627D01*
X200283815Y-127754632D01*
X200280654Y-127755917D01*
X200277657Y-127757538D01*
X200277644Y-127757545D01*
X199968223Y-127924995D01*
X199968208Y-127925003D01*
X199965213Y-127926625D01*
X199962399Y-127928575D01*
X199962396Y-127928578D01*
X199673275Y-128129049D01*
X199673259Y-128129060D01*
X199670466Y-128130998D01*
X199667900Y-128133232D01*
X199667888Y-128133242D01*
X199402572Y-128364305D01*
X199402558Y-128364317D01*
X199399990Y-128366555D01*
X199397681Y-128369062D01*
X199397673Y-128369071D01*
X199159380Y-128627926D01*
X199159367Y-128627940D01*
X199157069Y-128630438D01*
X199155048Y-128633186D01*
X199155046Y-128633190D01*
X198946676Y-128916686D01*
X198946668Y-128916697D01*
X198944652Y-128919441D01*
X198942946Y-128922395D01*
X198942942Y-128922402D01*
X198767026Y-129227098D01*
X198767022Y-129227105D01*
X198765317Y-129230059D01*
X198763947Y-129233180D01*
X198763944Y-129233188D01*
X198622615Y-129555385D01*
X198622610Y-129555395D01*
X198621241Y-129558519D01*
X198620220Y-129561783D01*
X198620219Y-129561786D01*
X198569170Y-129725001D01*
X198514173Y-129900836D01*
X198513519Y-129904183D01*
X198513518Y-129904188D01*
X198446066Y-130249501D01*
X198446064Y-130249514D01*
X198445412Y-130252853D01*
X198445130Y-130256247D01*
X198445129Y-130256260D01*
X198416076Y-130606881D01*
X198415793Y-130610298D01*
X193249262Y-130610298D01*
X193244324Y-130431168D01*
X193195059Y-130075897D01*
X193107011Y-129728202D01*
X192981248Y-129392303D01*
X192819296Y-129072279D01*
X192724175Y-128926686D01*
X192624984Y-128774862D01*
X192624983Y-128774861D01*
X192623122Y-128772012D01*
X192395107Y-128495148D01*
X192392663Y-128492770D01*
X192392658Y-128492765D01*
X192140470Y-128247433D01*
X192140466Y-128247429D01*
X192138019Y-128245049D01*
X192017182Y-128150998D01*
X191857679Y-128026851D01*
X191857675Y-128026848D01*
X191854978Y-128024749D01*
X191727885Y-127946625D01*
X191552328Y-127838710D01*
X191552320Y-127838706D01*
X191549420Y-127836923D01*
X191546334Y-127835467D01*
X191546331Y-127835465D01*
X191265074Y-127702737D01*
X191225054Y-127683851D01*
X191221815Y-127682739D01*
X191221810Y-127682737D01*
X190889047Y-127568499D01*
X190889032Y-127568494D01*
X190885817Y-127567391D01*
X190882499Y-127566647D01*
X190882487Y-127566644D01*
X190539170Y-127489705D01*
X190539153Y-127489702D01*
X190535828Y-127488957D01*
X190532428Y-127488580D01*
X190532418Y-127488579D01*
X190182747Y-127449877D01*
X190182735Y-127449876D01*
X190179335Y-127449500D01*
X189910405Y-127449500D01*
X189908729Y-127449592D01*
X189908709Y-127449593D01*
X189645277Y-127464127D01*
X189645271Y-127464127D01*
X189641875Y-127464315D01*
X189638531Y-127464873D01*
X189638513Y-127464875D01*
X189291465Y-127522787D01*
X189291450Y-127522790D01*
X189288096Y-127523350D01*
X189284819Y-127524276D01*
X189284804Y-127524280D01*
X188946253Y-127620014D01*
X188946244Y-127620017D01*
X188942959Y-127620946D01*
X188939787Y-127622234D01*
X188939785Y-127622235D01*
X188613828Y-127754627D01*
X188613815Y-127754632D01*
X188610654Y-127755917D01*
X188607657Y-127757538D01*
X188607644Y-127757545D01*
X188298223Y-127924995D01*
X188298208Y-127925003D01*
X188295213Y-127926625D01*
X188292399Y-127928575D01*
X188292396Y-127928578D01*
X188003275Y-128129049D01*
X188003259Y-128129060D01*
X188000466Y-128130998D01*
X187997900Y-128133232D01*
X187997888Y-128133242D01*
X187732572Y-128364305D01*
X187732558Y-128364317D01*
X187729990Y-128366555D01*
X187727681Y-128369062D01*
X187727673Y-128369071D01*
X187489380Y-128627926D01*
X187489367Y-128627940D01*
X187487069Y-128630438D01*
X187485048Y-128633186D01*
X187485046Y-128633190D01*
X187276676Y-128916686D01*
X187276668Y-128916697D01*
X187274652Y-128919441D01*
X187272946Y-128922395D01*
X187272942Y-128922402D01*
X187097026Y-129227098D01*
X187097022Y-129227105D01*
X187095317Y-129230059D01*
X187093947Y-129233180D01*
X187093944Y-129233188D01*
X186952615Y-129555385D01*
X186952610Y-129555395D01*
X186951241Y-129558519D01*
X186950220Y-129561783D01*
X186950219Y-129561786D01*
X186899170Y-129725001D01*
X186844173Y-129900836D01*
X186843519Y-129904183D01*
X186843518Y-129904188D01*
X186776066Y-130249501D01*
X186776064Y-130249514D01*
X186775412Y-130252853D01*
X186775130Y-130256247D01*
X186775129Y-130256260D01*
X186746076Y-130606881D01*
X186745793Y-130610298D01*
X181548710Y-130610298D01*
X181544324Y-130451168D01*
X181495059Y-130095897D01*
X181407011Y-129748202D01*
X181281248Y-129412303D01*
X181119296Y-129092279D01*
X181110893Y-129079418D01*
X180924984Y-128794862D01*
X180924983Y-128794861D01*
X180923122Y-128792012D01*
X180695107Y-128515148D01*
X180692663Y-128512770D01*
X180692658Y-128512765D01*
X180440470Y-128267433D01*
X180440466Y-128267429D01*
X180438019Y-128265049D01*
X180425171Y-128255049D01*
X180157679Y-128046851D01*
X180157675Y-128046848D01*
X180154978Y-128044749D01*
X180152063Y-128042957D01*
X179852328Y-127858710D01*
X179852320Y-127858706D01*
X179849420Y-127856923D01*
X179846334Y-127855467D01*
X179846331Y-127855465D01*
X179528156Y-127705315D01*
X179528157Y-127705315D01*
X179525054Y-127703851D01*
X179521815Y-127702739D01*
X179521810Y-127702737D01*
X179189047Y-127588499D01*
X179189032Y-127588494D01*
X179185817Y-127587391D01*
X179182499Y-127586647D01*
X179182487Y-127586644D01*
X178839170Y-127509705D01*
X178839153Y-127509702D01*
X178835828Y-127508957D01*
X178832428Y-127508580D01*
X178832418Y-127508579D01*
X178482747Y-127469877D01*
X178482735Y-127469876D01*
X178479335Y-127469500D01*
X178210405Y-127469500D01*
X178208729Y-127469592D01*
X178208709Y-127469593D01*
X177945277Y-127484127D01*
X177945271Y-127484127D01*
X177941875Y-127484315D01*
X177938531Y-127484873D01*
X177938513Y-127484875D01*
X177591465Y-127542787D01*
X177591450Y-127542790D01*
X177588096Y-127543350D01*
X177584819Y-127544276D01*
X177584804Y-127544280D01*
X177246253Y-127640014D01*
X177246244Y-127640017D01*
X177242959Y-127640946D01*
X177239787Y-127642234D01*
X177239785Y-127642235D01*
X176913828Y-127774627D01*
X176913815Y-127774632D01*
X176910654Y-127775917D01*
X176907657Y-127777538D01*
X176907644Y-127777545D01*
X176598223Y-127944995D01*
X176598208Y-127945003D01*
X176595213Y-127946625D01*
X176592399Y-127948575D01*
X176592396Y-127948578D01*
X176303275Y-128149049D01*
X176303259Y-128149060D01*
X176300466Y-128150998D01*
X176297900Y-128153232D01*
X176297888Y-128153242D01*
X176032572Y-128384305D01*
X176032558Y-128384317D01*
X176029990Y-128386555D01*
X176027681Y-128389062D01*
X176027673Y-128389071D01*
X175789380Y-128647926D01*
X175789367Y-128647940D01*
X175787069Y-128650438D01*
X175785048Y-128653186D01*
X175785046Y-128653190D01*
X175576676Y-128936686D01*
X175576668Y-128936697D01*
X175574652Y-128939441D01*
X175572946Y-128942395D01*
X175572942Y-128942402D01*
X175397026Y-129247098D01*
X175397022Y-129247105D01*
X175395317Y-129250059D01*
X175393947Y-129253180D01*
X175393944Y-129253188D01*
X175252615Y-129575385D01*
X175252610Y-129575395D01*
X175251241Y-129578519D01*
X175250220Y-129581783D01*
X175250219Y-129581786D01*
X175147301Y-129910836D01*
X175144173Y-129920836D01*
X175143519Y-129924183D01*
X175143518Y-129924188D01*
X175076066Y-130269501D01*
X175076064Y-130269514D01*
X175075412Y-130272853D01*
X175075130Y-130276247D01*
X175075129Y-130276260D01*
X175046338Y-130623719D01*
X175045793Y-130630298D01*
X169869537Y-130630298D01*
X169864324Y-130441168D01*
X169815059Y-130085897D01*
X169727011Y-129738202D01*
X169601248Y-129402303D01*
X169439296Y-129082279D01*
X169430893Y-129069418D01*
X169244984Y-128784862D01*
X169244983Y-128784861D01*
X169243122Y-128782012D01*
X169015107Y-128505148D01*
X169012663Y-128502770D01*
X169012658Y-128502765D01*
X168760470Y-128257433D01*
X168760466Y-128257429D01*
X168758019Y-128255049D01*
X168745171Y-128245049D01*
X168477679Y-128036851D01*
X168477675Y-128036848D01*
X168474978Y-128034749D01*
X168472063Y-128032957D01*
X168172328Y-127848710D01*
X168172320Y-127848706D01*
X168169420Y-127846923D01*
X168166334Y-127845467D01*
X168166331Y-127845465D01*
X167953176Y-127744874D01*
X167845054Y-127693851D01*
X167841815Y-127692739D01*
X167841810Y-127692737D01*
X167509047Y-127578499D01*
X167509032Y-127578494D01*
X167505817Y-127577391D01*
X167502499Y-127576647D01*
X167502487Y-127576644D01*
X167159170Y-127499705D01*
X167159153Y-127499702D01*
X167155828Y-127498957D01*
X167152428Y-127498580D01*
X167152418Y-127498579D01*
X166802747Y-127459877D01*
X166802735Y-127459876D01*
X166799335Y-127459500D01*
X166530405Y-127459500D01*
X166528729Y-127459592D01*
X166528709Y-127459593D01*
X166265277Y-127474127D01*
X166265271Y-127474127D01*
X166261875Y-127474315D01*
X166258531Y-127474873D01*
X166258513Y-127474875D01*
X165911465Y-127532787D01*
X165911450Y-127532790D01*
X165908096Y-127533350D01*
X165904819Y-127534276D01*
X165904804Y-127534280D01*
X165566253Y-127630014D01*
X165566244Y-127630017D01*
X165562959Y-127630946D01*
X165559787Y-127632234D01*
X165559785Y-127632235D01*
X165233828Y-127764627D01*
X165233815Y-127764632D01*
X165230654Y-127765917D01*
X165227657Y-127767538D01*
X165227644Y-127767545D01*
X164918223Y-127934995D01*
X164918208Y-127935003D01*
X164915213Y-127936625D01*
X164912399Y-127938575D01*
X164912396Y-127938578D01*
X164623275Y-128139049D01*
X164623259Y-128139060D01*
X164620466Y-128140998D01*
X164617900Y-128143232D01*
X164617888Y-128143242D01*
X164352572Y-128374305D01*
X164352558Y-128374317D01*
X164349990Y-128376555D01*
X164347681Y-128379062D01*
X164347673Y-128379071D01*
X164109380Y-128637926D01*
X164109367Y-128637940D01*
X164107069Y-128640438D01*
X164105048Y-128643186D01*
X164105046Y-128643190D01*
X163896676Y-128926686D01*
X163896668Y-128926697D01*
X163894652Y-128929441D01*
X163892946Y-128932395D01*
X163892942Y-128932402D01*
X163717026Y-129237098D01*
X163717022Y-129237105D01*
X163715317Y-129240059D01*
X163713947Y-129243180D01*
X163713944Y-129243188D01*
X163572615Y-129565385D01*
X163572610Y-129565395D01*
X163571241Y-129568519D01*
X163570220Y-129571783D01*
X163570219Y-129571786D01*
X163467301Y-129900836D01*
X163464173Y-129910836D01*
X163463519Y-129914183D01*
X163463518Y-129914188D01*
X163396066Y-130259501D01*
X163396064Y-130259514D01*
X163395412Y-130262853D01*
X163395130Y-130266247D01*
X163395129Y-130266260D01*
X163366338Y-130613719D01*
X163365793Y-130620298D01*
X158900500Y-130620298D01*
X158900500Y-102160298D01*
X198415793Y-102160298D01*
X198415887Y-102163713D01*
X198415887Y-102163719D01*
X198425581Y-102515411D01*
X198425582Y-102515423D01*
X198425676Y-102518832D01*
X198426143Y-102522205D01*
X198426145Y-102522220D01*
X198450867Y-102700498D01*
X198474941Y-102874103D01*
X198475776Y-102877402D01*
X198475778Y-102877410D01*
X198562151Y-103218491D01*
X198562153Y-103218500D01*
X198562989Y-103221798D01*
X198564186Y-103224996D01*
X198564187Y-103224998D01*
X198627692Y-103394614D01*
X198688752Y-103557697D01*
X198690297Y-103560751D01*
X198690298Y-103560752D01*
X198770857Y-103719941D01*
X198850704Y-103877721D01*
X198852567Y-103880574D01*
X198852572Y-103880581D01*
X198952357Y-104033313D01*
X199046878Y-104177988D01*
X199274893Y-104454852D01*
X199277336Y-104457228D01*
X199277341Y-104457234D01*
X199409391Y-104585694D01*
X199531981Y-104704951D01*
X199815022Y-104925251D01*
X200120580Y-105113077D01*
X200444946Y-105266149D01*
X200624425Y-105327764D01*
X200780952Y-105381500D01*
X200780955Y-105381500D01*
X200784183Y-105382609D01*
X200787512Y-105383355D01*
X201130829Y-105460294D01*
X201130832Y-105460294D01*
X201134172Y-105461043D01*
X201490665Y-105500500D01*
X201494094Y-105500500D01*
X201757892Y-105500500D01*
X201759595Y-105500500D01*
X202028125Y-105485685D01*
X202381904Y-105426650D01*
X202727041Y-105329054D01*
X203059346Y-105194083D01*
X203374787Y-105023375D01*
X203669534Y-104819002D01*
X203940010Y-104583445D01*
X204182931Y-104319562D01*
X204395348Y-104030559D01*
X204574683Y-103719941D01*
X204718759Y-103391481D01*
X204825827Y-103049164D01*
X204894588Y-102697147D01*
X204924207Y-102339702D01*
X204914324Y-101981168D01*
X204865059Y-101625897D01*
X204777011Y-101278202D01*
X204651248Y-100942303D01*
X204489296Y-100622279D01*
X204293122Y-100322012D01*
X204065107Y-100045148D01*
X204062663Y-100042770D01*
X204062658Y-100042765D01*
X203810470Y-99797433D01*
X203810466Y-99797429D01*
X203808019Y-99795049D01*
X203658982Y-99679049D01*
X203527679Y-99576851D01*
X203527675Y-99576848D01*
X203524978Y-99574749D01*
X203368526Y-99478578D01*
X203222328Y-99388710D01*
X203222320Y-99388706D01*
X203219420Y-99386923D01*
X203216334Y-99385467D01*
X203216331Y-99385465D01*
X202898156Y-99235315D01*
X202898157Y-99235315D01*
X202895054Y-99233851D01*
X202891815Y-99232739D01*
X202891810Y-99232737D01*
X202559047Y-99118499D01*
X202559032Y-99118494D01*
X202555817Y-99117391D01*
X202552499Y-99116647D01*
X202552487Y-99116644D01*
X202209170Y-99039705D01*
X202209153Y-99039702D01*
X202205828Y-99038957D01*
X202202428Y-99038580D01*
X202202418Y-99038579D01*
X201852747Y-98999877D01*
X201852735Y-98999876D01*
X201849335Y-98999500D01*
X201580405Y-98999500D01*
X201578729Y-98999592D01*
X201578709Y-98999593D01*
X201315277Y-99014127D01*
X201315271Y-99014127D01*
X201311875Y-99014315D01*
X201308531Y-99014873D01*
X201308513Y-99014875D01*
X200961465Y-99072787D01*
X200961450Y-99072790D01*
X200958096Y-99073350D01*
X200954819Y-99074276D01*
X200954804Y-99074280D01*
X200616253Y-99170014D01*
X200616244Y-99170017D01*
X200612959Y-99170946D01*
X200609787Y-99172234D01*
X200609785Y-99172235D01*
X200283828Y-99304627D01*
X200283815Y-99304632D01*
X200280654Y-99305917D01*
X200277657Y-99307538D01*
X200277644Y-99307545D01*
X199968223Y-99474995D01*
X199968208Y-99475003D01*
X199965213Y-99476625D01*
X199962399Y-99478575D01*
X199962396Y-99478578D01*
X199673275Y-99679049D01*
X199673259Y-99679060D01*
X199670466Y-99680998D01*
X199667900Y-99683232D01*
X199667888Y-99683242D01*
X199402572Y-99914305D01*
X199402558Y-99914317D01*
X199399990Y-99916555D01*
X199397681Y-99919062D01*
X199397673Y-99919071D01*
X199159380Y-100177926D01*
X199159367Y-100177940D01*
X199157069Y-100180438D01*
X199155048Y-100183186D01*
X199155046Y-100183190D01*
X198946676Y-100466686D01*
X198946668Y-100466697D01*
X198944652Y-100469441D01*
X198942946Y-100472395D01*
X198942942Y-100472402D01*
X198767026Y-100777098D01*
X198767022Y-100777105D01*
X198765317Y-100780059D01*
X198763947Y-100783180D01*
X198763944Y-100783188D01*
X198622615Y-101105385D01*
X198622610Y-101105395D01*
X198621241Y-101108519D01*
X198620220Y-101111783D01*
X198620219Y-101111786D01*
X198569170Y-101275001D01*
X198514173Y-101450836D01*
X198513519Y-101454183D01*
X198513518Y-101454188D01*
X198446066Y-101799501D01*
X198446064Y-101799514D01*
X198445412Y-101802853D01*
X198445130Y-101806247D01*
X198445129Y-101806260D01*
X198416076Y-102156881D01*
X198415793Y-102160298D01*
X158900500Y-102160298D01*
X158900500Y-86553304D01*
X163715766Y-86553304D01*
X163725722Y-86939831D01*
X163726129Y-86942976D01*
X163726130Y-86942986D01*
X163774956Y-87320117D01*
X163774958Y-87320133D01*
X163775367Y-87323285D01*
X163776097Y-87326380D01*
X163776100Y-87326394D01*
X163863443Y-87696495D01*
X163863446Y-87696508D01*
X163864177Y-87699602D01*
X163865224Y-87702613D01*
X163865225Y-87702615D01*
X163986680Y-88051773D01*
X163991210Y-88064794D01*
X163992564Y-88067688D01*
X163992567Y-88067694D01*
X164151722Y-88407732D01*
X164155118Y-88414988D01*
X164156766Y-88417732D01*
X164352520Y-88743735D01*
X164352528Y-88743747D01*
X164354165Y-88746473D01*
X164356076Y-88749019D01*
X164356079Y-88749024D01*
X164472446Y-88904092D01*
X164586241Y-89055734D01*
X164848885Y-89339495D01*
X165139314Y-89594745D01*
X165454449Y-89818781D01*
X165790949Y-90009227D01*
X166145247Y-90164065D01*
X166513588Y-90281652D01*
X166892067Y-90360743D01*
X167276673Y-90400500D01*
X167279871Y-90400500D01*
X167565001Y-90400500D01*
X167566589Y-90400500D01*
X167856142Y-90385574D01*
X168238191Y-90326072D01*
X168612097Y-90227602D01*
X168973896Y-90091209D01*
X169319754Y-89918338D01*
X169646004Y-89710822D01*
X169949187Y-89470860D01*
X170226091Y-89200997D01*
X170473779Y-88904092D01*
X170689627Y-88583294D01*
X170871346Y-88242002D01*
X171017009Y-87883834D01*
X171125074Y-87512587D01*
X171194394Y-87132197D01*
X171224234Y-86746696D01*
X171218995Y-86543304D01*
X180405766Y-86543304D01*
X180405848Y-86546493D01*
X180405848Y-86546499D01*
X180411005Y-86746696D01*
X180415722Y-86929831D01*
X180416129Y-86932976D01*
X180416130Y-86932986D01*
X180464956Y-87310117D01*
X180464958Y-87310133D01*
X180465367Y-87313285D01*
X180466097Y-87316380D01*
X180466100Y-87316394D01*
X180553443Y-87686495D01*
X180553446Y-87686508D01*
X180554177Y-87689602D01*
X180555224Y-87692613D01*
X180555225Y-87692615D01*
X180618262Y-87873834D01*
X180681210Y-88054794D01*
X180682564Y-88057688D01*
X180682567Y-88057694D01*
X180843760Y-88402087D01*
X180845118Y-88404988D01*
X180896284Y-88490199D01*
X181042520Y-88733735D01*
X181042528Y-88733747D01*
X181044165Y-88736473D01*
X181046076Y-88739019D01*
X181046079Y-88739024D01*
X181162446Y-88894092D01*
X181276241Y-89045734D01*
X181538885Y-89329495D01*
X181829314Y-89584745D01*
X182144449Y-89808781D01*
X182480949Y-89999227D01*
X182835247Y-90154065D01*
X183203588Y-90271652D01*
X183582067Y-90350743D01*
X183966673Y-90390500D01*
X183969871Y-90390500D01*
X184255001Y-90390500D01*
X184256589Y-90390500D01*
X184546142Y-90375574D01*
X184928191Y-90316072D01*
X185302097Y-90217602D01*
X185663896Y-90081209D01*
X186009754Y-89908338D01*
X186336004Y-89700822D01*
X186639187Y-89460860D01*
X186916091Y-89190997D01*
X187163779Y-88894092D01*
X187379627Y-88573294D01*
X187561346Y-88232002D01*
X187707009Y-87873834D01*
X187815074Y-87502587D01*
X187884394Y-87122197D01*
X187914234Y-86736696D01*
X187909510Y-86553304D01*
X197115766Y-86553304D01*
X197125722Y-86939831D01*
X197126129Y-86942976D01*
X197126130Y-86942986D01*
X197174956Y-87320117D01*
X197174958Y-87320133D01*
X197175367Y-87323285D01*
X197176097Y-87326380D01*
X197176100Y-87326394D01*
X197263443Y-87696495D01*
X197263446Y-87696508D01*
X197264177Y-87699602D01*
X197265224Y-87702613D01*
X197265225Y-87702615D01*
X197386680Y-88051773D01*
X197391210Y-88064794D01*
X197392564Y-88067688D01*
X197392567Y-88067694D01*
X197551722Y-88407732D01*
X197555118Y-88414988D01*
X197556766Y-88417732D01*
X197752520Y-88743735D01*
X197752528Y-88743747D01*
X197754165Y-88746473D01*
X197756076Y-88749019D01*
X197756079Y-88749024D01*
X197872446Y-88904092D01*
X197986241Y-89055734D01*
X198248885Y-89339495D01*
X198539314Y-89594745D01*
X198854449Y-89818781D01*
X199190949Y-90009227D01*
X199545247Y-90164065D01*
X199913588Y-90281652D01*
X200292067Y-90360743D01*
X200676673Y-90400500D01*
X200679871Y-90400500D01*
X200965001Y-90400500D01*
X200966589Y-90400500D01*
X201256142Y-90385574D01*
X201638191Y-90326072D01*
X202012097Y-90227602D01*
X202373896Y-90091209D01*
X202719754Y-89918338D01*
X203046004Y-89710822D01*
X203349187Y-89470860D01*
X203626091Y-89200997D01*
X203873779Y-88904092D01*
X204089627Y-88583294D01*
X204271346Y-88242002D01*
X204417009Y-87883834D01*
X204525074Y-87512587D01*
X204594394Y-87132197D01*
X204624234Y-86746696D01*
X204614278Y-86360169D01*
X204564633Y-85976715D01*
X204475823Y-85600398D01*
X204348790Y-85235206D01*
X204184882Y-84885012D01*
X204069614Y-84693049D01*
X203987479Y-84556264D01*
X203987474Y-84556256D01*
X203985835Y-84553527D01*
X203753759Y-84244266D01*
X203491115Y-83960505D01*
X203200686Y-83705255D01*
X202885551Y-83481219D01*
X202882772Y-83479646D01*
X202882767Y-83479643D01*
X202551840Y-83292351D01*
X202551832Y-83292347D01*
X202549051Y-83290773D01*
X202194753Y-83135935D01*
X202191715Y-83134965D01*
X202191712Y-83134964D01*
X201829448Y-83019317D01*
X201829444Y-83019316D01*
X201826412Y-83018348D01*
X201823291Y-83017695D01*
X201823288Y-83017695D01*
X201451054Y-82939909D01*
X201451050Y-82939908D01*
X201447933Y-82939257D01*
X201444774Y-82938930D01*
X201444765Y-82938929D01*
X201066506Y-82899828D01*
X201066494Y-82899827D01*
X201063327Y-82899500D01*
X200773411Y-82899500D01*
X200771846Y-82899580D01*
X200771833Y-82899581D01*
X200487033Y-82914262D01*
X200487026Y-82914262D01*
X200483858Y-82914426D01*
X200480732Y-82914912D01*
X200480711Y-82914915D01*
X200104963Y-82973436D01*
X200104948Y-82973439D01*
X200101809Y-82973928D01*
X200098726Y-82974739D01*
X200098716Y-82974742D01*
X199730989Y-83071585D01*
X199730983Y-83071586D01*
X199727903Y-83072398D01*
X199724929Y-83073518D01*
X199724920Y-83073522D01*
X199369084Y-83207667D01*
X199369074Y-83207671D01*
X199366104Y-83208791D01*
X199363269Y-83210207D01*
X199363253Y-83210215D01*
X199023109Y-83380230D01*
X199023094Y-83380238D01*
X199020246Y-83381662D01*
X199017561Y-83383369D01*
X199017543Y-83383380D01*
X198696690Y-83587464D01*
X198696684Y-83587468D01*
X198693996Y-83589178D01*
X198691508Y-83591147D01*
X198691497Y-83591155D01*
X198393307Y-83827165D01*
X198393294Y-83827175D01*
X198390813Y-83829140D01*
X198388542Y-83831352D01*
X198388532Y-83831362D01*
X198116193Y-84096776D01*
X198116182Y-84096786D01*
X198113909Y-84099003D01*
X198111868Y-84101449D01*
X198111862Y-84101456D01*
X197868276Y-84393443D01*
X197868263Y-84393459D01*
X197866221Y-84395908D01*
X197864439Y-84398555D01*
X197864431Y-84398567D01*
X197652158Y-84714051D01*
X197652146Y-84714070D01*
X197650373Y-84716706D01*
X197648875Y-84719518D01*
X197648868Y-84719531D01*
X197470154Y-85055179D01*
X197470147Y-85055193D01*
X197468654Y-85057998D01*
X197467457Y-85060939D01*
X197467450Y-85060956D01*
X197324194Y-85413205D01*
X197324186Y-85413225D01*
X197322991Y-85416166D01*
X197322101Y-85419221D01*
X197322099Y-85419229D01*
X197215815Y-85784357D01*
X197215812Y-85784367D01*
X197214926Y-85787413D01*
X197214355Y-85790544D01*
X197214355Y-85790546D01*
X197146178Y-86164659D01*
X197146175Y-86164676D01*
X197145606Y-86167803D01*
X197145359Y-86170984D01*
X197145359Y-86170990D01*
X197116012Y-86550114D01*
X197116011Y-86550131D01*
X197115766Y-86553304D01*
X187909510Y-86553304D01*
X187904278Y-86350169D01*
X187854633Y-85966715D01*
X187765823Y-85590398D01*
X187638790Y-85225206D01*
X187474882Y-84875012D01*
X187359614Y-84683049D01*
X187277479Y-84546264D01*
X187277474Y-84546256D01*
X187275835Y-84543527D01*
X187043759Y-84234266D01*
X186781115Y-83950505D01*
X186490686Y-83695255D01*
X186189617Y-83481219D01*
X186178152Y-83473068D01*
X186178150Y-83473067D01*
X186175551Y-83471219D01*
X186172772Y-83469646D01*
X186172767Y-83469643D01*
X185841840Y-83282351D01*
X185841832Y-83282347D01*
X185839051Y-83280773D01*
X185484753Y-83125935D01*
X185481715Y-83124965D01*
X185481712Y-83124964D01*
X185119448Y-83009317D01*
X185119444Y-83009316D01*
X185116412Y-83008348D01*
X185113291Y-83007695D01*
X185113288Y-83007695D01*
X184741054Y-82929909D01*
X184741050Y-82929908D01*
X184737933Y-82929257D01*
X184734774Y-82928930D01*
X184734765Y-82928929D01*
X184356506Y-82889828D01*
X184356494Y-82889827D01*
X184353327Y-82889500D01*
X184063411Y-82889500D01*
X184061846Y-82889580D01*
X184061833Y-82889581D01*
X183777033Y-82904262D01*
X183777026Y-82904262D01*
X183773858Y-82904426D01*
X183770732Y-82904912D01*
X183770711Y-82904915D01*
X183394963Y-82963436D01*
X183394948Y-82963439D01*
X183391809Y-82963928D01*
X183388726Y-82964739D01*
X183388716Y-82964742D01*
X183020989Y-83061585D01*
X183020983Y-83061586D01*
X183017903Y-83062398D01*
X183014929Y-83063518D01*
X183014920Y-83063522D01*
X182659084Y-83197667D01*
X182659074Y-83197671D01*
X182656104Y-83198791D01*
X182653269Y-83200207D01*
X182653253Y-83200215D01*
X182313109Y-83370230D01*
X182313094Y-83370238D01*
X182310246Y-83371662D01*
X182307561Y-83373369D01*
X182307543Y-83373380D01*
X181986690Y-83577464D01*
X181986684Y-83577468D01*
X181983996Y-83579178D01*
X181981508Y-83581147D01*
X181981497Y-83581155D01*
X181683307Y-83817165D01*
X181683294Y-83817175D01*
X181680813Y-83819140D01*
X181678542Y-83821352D01*
X181678532Y-83821362D01*
X181406193Y-84086776D01*
X181406182Y-84086786D01*
X181403909Y-84089003D01*
X181401868Y-84091449D01*
X181401862Y-84091456D01*
X181158276Y-84383443D01*
X181158263Y-84383459D01*
X181156221Y-84385908D01*
X181154439Y-84388555D01*
X181154431Y-84388567D01*
X180942158Y-84704051D01*
X180942146Y-84704070D01*
X180940373Y-84706706D01*
X180938875Y-84709518D01*
X180938868Y-84709531D01*
X180760154Y-85045179D01*
X180760147Y-85045193D01*
X180758654Y-85047998D01*
X180757457Y-85050939D01*
X180757450Y-85050956D01*
X180614194Y-85403205D01*
X180614186Y-85403225D01*
X180612991Y-85406166D01*
X180612101Y-85409221D01*
X180612099Y-85409229D01*
X180505815Y-85774357D01*
X180505812Y-85774367D01*
X180504926Y-85777413D01*
X180504355Y-85780544D01*
X180504355Y-85780546D01*
X180436178Y-86154659D01*
X180436175Y-86154676D01*
X180435606Y-86157803D01*
X180435359Y-86160984D01*
X180435359Y-86160990D01*
X180406012Y-86540114D01*
X180406011Y-86540131D01*
X180405766Y-86543304D01*
X171218995Y-86543304D01*
X171214278Y-86360169D01*
X171164633Y-85976715D01*
X171075823Y-85600398D01*
X170948790Y-85235206D01*
X170784882Y-84885012D01*
X170669614Y-84693049D01*
X170587479Y-84556264D01*
X170587474Y-84556256D01*
X170585835Y-84553527D01*
X170353759Y-84244266D01*
X170091115Y-83960505D01*
X169800686Y-83705255D01*
X169485551Y-83481219D01*
X169482772Y-83479646D01*
X169482767Y-83479643D01*
X169151840Y-83292351D01*
X169151832Y-83292347D01*
X169149051Y-83290773D01*
X168794753Y-83135935D01*
X168791715Y-83134965D01*
X168791712Y-83134964D01*
X168429448Y-83019317D01*
X168429444Y-83019316D01*
X168426412Y-83018348D01*
X168423291Y-83017695D01*
X168423288Y-83017695D01*
X168051054Y-82939909D01*
X168051050Y-82939908D01*
X168047933Y-82939257D01*
X168044774Y-82938930D01*
X168044765Y-82938929D01*
X167666506Y-82899828D01*
X167666494Y-82899827D01*
X167663327Y-82899500D01*
X167373411Y-82899500D01*
X167371846Y-82899580D01*
X167371833Y-82899581D01*
X167087033Y-82914262D01*
X167087026Y-82914262D01*
X167083858Y-82914426D01*
X167080732Y-82914912D01*
X167080711Y-82914915D01*
X166704963Y-82973436D01*
X166704948Y-82973439D01*
X166701809Y-82973928D01*
X166698726Y-82974739D01*
X166698716Y-82974742D01*
X166330989Y-83071585D01*
X166330983Y-83071586D01*
X166327903Y-83072398D01*
X166324929Y-83073518D01*
X166324920Y-83073522D01*
X165969084Y-83207667D01*
X165969074Y-83207671D01*
X165966104Y-83208791D01*
X165963269Y-83210207D01*
X165963253Y-83210215D01*
X165623109Y-83380230D01*
X165623094Y-83380238D01*
X165620246Y-83381662D01*
X165617561Y-83383369D01*
X165617543Y-83383380D01*
X165296690Y-83587464D01*
X165296684Y-83587468D01*
X165293996Y-83589178D01*
X165291508Y-83591147D01*
X165291497Y-83591155D01*
X164993307Y-83827165D01*
X164993294Y-83827175D01*
X164990813Y-83829140D01*
X164988542Y-83831352D01*
X164988532Y-83831362D01*
X164716193Y-84096776D01*
X164716182Y-84096786D01*
X164713909Y-84099003D01*
X164711868Y-84101449D01*
X164711862Y-84101456D01*
X164468276Y-84393443D01*
X164468263Y-84393459D01*
X164466221Y-84395908D01*
X164464439Y-84398555D01*
X164464431Y-84398567D01*
X164252158Y-84714051D01*
X164252146Y-84714070D01*
X164250373Y-84716706D01*
X164248875Y-84719518D01*
X164248868Y-84719531D01*
X164070154Y-85055179D01*
X164070147Y-85055193D01*
X164068654Y-85057998D01*
X164067457Y-85060939D01*
X164067450Y-85060956D01*
X163924194Y-85413205D01*
X163924186Y-85413225D01*
X163922991Y-85416166D01*
X163922101Y-85419221D01*
X163922099Y-85419229D01*
X163815815Y-85784357D01*
X163815812Y-85784367D01*
X163814926Y-85787413D01*
X163814355Y-85790544D01*
X163814355Y-85790546D01*
X163746178Y-86164659D01*
X163746175Y-86164676D01*
X163745606Y-86167803D01*
X163745359Y-86170984D01*
X163745359Y-86170990D01*
X163716012Y-86550114D01*
X163716011Y-86550131D01*
X163715766Y-86553304D01*
X158900500Y-86553304D01*
X158900500Y-65793304D01*
X180405766Y-65793304D01*
X180415722Y-66179831D01*
X180416129Y-66182976D01*
X180416130Y-66182986D01*
X180464956Y-66560117D01*
X180464958Y-66560133D01*
X180465367Y-66563285D01*
X180466097Y-66566380D01*
X180466100Y-66566394D01*
X180553443Y-66936495D01*
X180553446Y-66936508D01*
X180554177Y-66939602D01*
X180555224Y-66942613D01*
X180555225Y-66942615D01*
X180618262Y-67123834D01*
X180681210Y-67304794D01*
X180845118Y-67654988D01*
X180846766Y-67657732D01*
X181042520Y-67983735D01*
X181042528Y-67983747D01*
X181044165Y-67986473D01*
X181046076Y-67989019D01*
X181046079Y-67989024D01*
X181162446Y-68144092D01*
X181276241Y-68295734D01*
X181538885Y-68579495D01*
X181829314Y-68834745D01*
X182144449Y-69058781D01*
X182480949Y-69249227D01*
X182835247Y-69404065D01*
X183203588Y-69521652D01*
X183582067Y-69600743D01*
X183966673Y-69640500D01*
X183969871Y-69640500D01*
X184255001Y-69640500D01*
X184256589Y-69640500D01*
X184546142Y-69625574D01*
X184928191Y-69566072D01*
X185302097Y-69467602D01*
X185663896Y-69331209D01*
X186009754Y-69158338D01*
X186336004Y-68950822D01*
X186639187Y-68710860D01*
X186916091Y-68440997D01*
X187163779Y-68144092D01*
X187379627Y-67823294D01*
X187561346Y-67482002D01*
X187707009Y-67123834D01*
X187815074Y-66752587D01*
X187884394Y-66372197D01*
X187914234Y-65986696D01*
X187904278Y-65600169D01*
X187854633Y-65216715D01*
X187765823Y-64840398D01*
X187638790Y-64475206D01*
X187474882Y-64125012D01*
X187359614Y-63933049D01*
X187277479Y-63796264D01*
X187277474Y-63796256D01*
X187275835Y-63793527D01*
X187043759Y-63484266D01*
X186781115Y-63200505D01*
X186490686Y-62945255D01*
X186175551Y-62721219D01*
X186172772Y-62719646D01*
X186172767Y-62719643D01*
X185841840Y-62532351D01*
X185841832Y-62532347D01*
X185839051Y-62530773D01*
X185484753Y-62375935D01*
X185481715Y-62374965D01*
X185481712Y-62374964D01*
X185119448Y-62259317D01*
X185119444Y-62259316D01*
X185116412Y-62258348D01*
X185113291Y-62257695D01*
X185113288Y-62257695D01*
X184741054Y-62179909D01*
X184741050Y-62179908D01*
X184737933Y-62179257D01*
X184734774Y-62178930D01*
X184734765Y-62178929D01*
X184356506Y-62139828D01*
X184356494Y-62139827D01*
X184353327Y-62139500D01*
X184063411Y-62139500D01*
X184061846Y-62139580D01*
X184061833Y-62139581D01*
X183777033Y-62154262D01*
X183777026Y-62154262D01*
X183773858Y-62154426D01*
X183770732Y-62154912D01*
X183770711Y-62154915D01*
X183394963Y-62213436D01*
X183394948Y-62213439D01*
X183391809Y-62213928D01*
X183388726Y-62214739D01*
X183388716Y-62214742D01*
X183020989Y-62311585D01*
X183020983Y-62311586D01*
X183017903Y-62312398D01*
X183014929Y-62313518D01*
X183014920Y-62313522D01*
X182659084Y-62447667D01*
X182659074Y-62447671D01*
X182656104Y-62448791D01*
X182653269Y-62450207D01*
X182653253Y-62450215D01*
X182313109Y-62620230D01*
X182313094Y-62620238D01*
X182310246Y-62621662D01*
X182307561Y-62623369D01*
X182307543Y-62623380D01*
X181986690Y-62827464D01*
X181986684Y-62827468D01*
X181983996Y-62829178D01*
X181981508Y-62831147D01*
X181981497Y-62831155D01*
X181683307Y-63067165D01*
X181683294Y-63067175D01*
X181680813Y-63069140D01*
X181678542Y-63071352D01*
X181678532Y-63071362D01*
X181406193Y-63336776D01*
X181406182Y-63336786D01*
X181403909Y-63339003D01*
X181401868Y-63341449D01*
X181401862Y-63341456D01*
X181158276Y-63633443D01*
X181158263Y-63633459D01*
X181156221Y-63635908D01*
X181154439Y-63638555D01*
X181154431Y-63638567D01*
X180942158Y-63954051D01*
X180942146Y-63954070D01*
X180940373Y-63956706D01*
X180938875Y-63959518D01*
X180938868Y-63959531D01*
X180760154Y-64295179D01*
X180760147Y-64295193D01*
X180758654Y-64297998D01*
X180757457Y-64300939D01*
X180757450Y-64300956D01*
X180614194Y-64653205D01*
X180614186Y-64653225D01*
X180612991Y-64656166D01*
X180612101Y-64659221D01*
X180612099Y-64659229D01*
X180505815Y-65024357D01*
X180505812Y-65024367D01*
X180504926Y-65027413D01*
X180504355Y-65030544D01*
X180504355Y-65030546D01*
X180436178Y-65404659D01*
X180436175Y-65404676D01*
X180435606Y-65407803D01*
X180435359Y-65410984D01*
X180435359Y-65410990D01*
X180406012Y-65790114D01*
X180406011Y-65790131D01*
X180405766Y-65793304D01*
X158900500Y-65793304D01*
X158900500Y-46003304D01*
X180415766Y-46003304D01*
X180425722Y-46389831D01*
X180426129Y-46392976D01*
X180426130Y-46392986D01*
X180474956Y-46770117D01*
X180474958Y-46770133D01*
X180475367Y-46773285D01*
X180476097Y-46776380D01*
X180476100Y-46776394D01*
X180563443Y-47146495D01*
X180563446Y-47146508D01*
X180564177Y-47149602D01*
X180565224Y-47152613D01*
X180565225Y-47152615D01*
X180628262Y-47333834D01*
X180691210Y-47514794D01*
X180855118Y-47864988D01*
X180856766Y-47867732D01*
X181052520Y-48193735D01*
X181052528Y-48193747D01*
X181054165Y-48196473D01*
X181056076Y-48199019D01*
X181056079Y-48199024D01*
X181172446Y-48354092D01*
X181286241Y-48505734D01*
X181548885Y-48789495D01*
X181839314Y-49044745D01*
X182154449Y-49268781D01*
X182490949Y-49459227D01*
X182845247Y-49614065D01*
X183213588Y-49731652D01*
X183592067Y-49810743D01*
X183976673Y-49850500D01*
X183979871Y-49850500D01*
X184265001Y-49850500D01*
X184266589Y-49850500D01*
X184556142Y-49835574D01*
X184938191Y-49776072D01*
X185312097Y-49677602D01*
X185673896Y-49541209D01*
X186019754Y-49368338D01*
X186346004Y-49160822D01*
X186649187Y-48920860D01*
X186926091Y-48650997D01*
X187173779Y-48354092D01*
X187389627Y-48033294D01*
X187571346Y-47692002D01*
X187717009Y-47333834D01*
X187825074Y-46962587D01*
X187894394Y-46582197D01*
X187924234Y-46196696D01*
X187914278Y-45810169D01*
X187864633Y-45426715D01*
X187775823Y-45050398D01*
X187648790Y-44685206D01*
X187484882Y-44335012D01*
X187369614Y-44143049D01*
X187287479Y-44006264D01*
X187287474Y-44006256D01*
X187285835Y-44003527D01*
X187053759Y-43694266D01*
X186791115Y-43410505D01*
X186500686Y-43155255D01*
X186185551Y-42931219D01*
X186182772Y-42929646D01*
X186182767Y-42929643D01*
X185851840Y-42742351D01*
X185851832Y-42742347D01*
X185849051Y-42740773D01*
X185494753Y-42585935D01*
X185491715Y-42584965D01*
X185491712Y-42584964D01*
X185129448Y-42469317D01*
X185129444Y-42469316D01*
X185126412Y-42468348D01*
X185123291Y-42467695D01*
X185123288Y-42467695D01*
X184751054Y-42389909D01*
X184751050Y-42389908D01*
X184747933Y-42389257D01*
X184744774Y-42388930D01*
X184744765Y-42388929D01*
X184366506Y-42349828D01*
X184366494Y-42349827D01*
X184363327Y-42349500D01*
X184073411Y-42349500D01*
X184071846Y-42349580D01*
X184071833Y-42349581D01*
X183787033Y-42364262D01*
X183787026Y-42364262D01*
X183783858Y-42364426D01*
X183780732Y-42364912D01*
X183780711Y-42364915D01*
X183404963Y-42423436D01*
X183404948Y-42423439D01*
X183401809Y-42423928D01*
X183398726Y-42424739D01*
X183398716Y-42424742D01*
X183030989Y-42521585D01*
X183030983Y-42521586D01*
X183027903Y-42522398D01*
X183024929Y-42523518D01*
X183024920Y-42523522D01*
X182669084Y-42657667D01*
X182669074Y-42657671D01*
X182666104Y-42658791D01*
X182663269Y-42660207D01*
X182663253Y-42660215D01*
X182323109Y-42830230D01*
X182323094Y-42830238D01*
X182320246Y-42831662D01*
X182317561Y-42833369D01*
X182317543Y-42833380D01*
X181996690Y-43037464D01*
X181996684Y-43037468D01*
X181993996Y-43039178D01*
X181991508Y-43041147D01*
X181991497Y-43041155D01*
X181693307Y-43277165D01*
X181693294Y-43277175D01*
X181690813Y-43279140D01*
X181688542Y-43281352D01*
X181688532Y-43281362D01*
X181416193Y-43546776D01*
X181416182Y-43546786D01*
X181413909Y-43549003D01*
X181411868Y-43551449D01*
X181411862Y-43551456D01*
X181168276Y-43843443D01*
X181168263Y-43843459D01*
X181166221Y-43845908D01*
X181164439Y-43848555D01*
X181164431Y-43848567D01*
X180952158Y-44164051D01*
X180952146Y-44164070D01*
X180950373Y-44166706D01*
X180948875Y-44169518D01*
X180948868Y-44169531D01*
X180770154Y-44505179D01*
X180770147Y-44505193D01*
X180768654Y-44507998D01*
X180767457Y-44510939D01*
X180767450Y-44510956D01*
X180624194Y-44863205D01*
X180624186Y-44863225D01*
X180622991Y-44866166D01*
X180622101Y-44869221D01*
X180622099Y-44869229D01*
X180515815Y-45234357D01*
X180515812Y-45234367D01*
X180514926Y-45237413D01*
X180514355Y-45240544D01*
X180514355Y-45240546D01*
X180446178Y-45614659D01*
X180446175Y-45614676D01*
X180445606Y-45617803D01*
X180445359Y-45620984D01*
X180445359Y-45620990D01*
X180416012Y-46000114D01*
X180416011Y-46000131D01*
X180415766Y-46003304D01*
X158900500Y-46003304D01*
X158900500Y-27499999D01*
X164794551Y-27499999D01*
X164814317Y-27751149D01*
X164873126Y-27996110D01*
X164921330Y-28112485D01*
X164969534Y-28228859D01*
X165101164Y-28443659D01*
X165264776Y-28635224D01*
X165456341Y-28798836D01*
X165671141Y-28930466D01*
X165903889Y-29026873D01*
X166148852Y-29085683D01*
X166400000Y-29105449D01*
X166651148Y-29085683D01*
X166896111Y-29026873D01*
X167128859Y-28930466D01*
X167343659Y-28798836D01*
X167535224Y-28635224D01*
X167698836Y-28443659D01*
X167830466Y-28228859D01*
X167926873Y-27996111D01*
X167985683Y-27751148D01*
X168005449Y-27500000D01*
X168005449Y-27499999D01*
X200294551Y-27499999D01*
X200314317Y-27751149D01*
X200373126Y-27996110D01*
X200421330Y-28112484D01*
X200469534Y-28228859D01*
X200601164Y-28443659D01*
X200764776Y-28635224D01*
X200956341Y-28798836D01*
X201171141Y-28930466D01*
X201403889Y-29026873D01*
X201648852Y-29085683D01*
X201900000Y-29105449D01*
X202151148Y-29085683D01*
X202396111Y-29026873D01*
X202628859Y-28930466D01*
X202843659Y-28798836D01*
X203035224Y-28635224D01*
X203198836Y-28443659D01*
X203330466Y-28228859D01*
X203426873Y-27996111D01*
X203485683Y-27751148D01*
X203505449Y-27500000D01*
X203485683Y-27248852D01*
X203426873Y-27003889D01*
X203330466Y-26771141D01*
X203198836Y-26556341D01*
X203035224Y-26364776D01*
X202843659Y-26201164D01*
X202628859Y-26069534D01*
X202512485Y-26021330D01*
X202396110Y-25973126D01*
X202151149Y-25914317D01*
X201900000Y-25894551D01*
X201648850Y-25914317D01*
X201403889Y-25973126D01*
X201171139Y-26069535D01*
X200956342Y-26201163D01*
X200764776Y-26364776D01*
X200601163Y-26556342D01*
X200469535Y-26771139D01*
X200373126Y-27003889D01*
X200314317Y-27248850D01*
X200294551Y-27499999D01*
X168005449Y-27499999D01*
X167985683Y-27248852D01*
X167926873Y-27003889D01*
X167830466Y-26771141D01*
X167698836Y-26556341D01*
X167535224Y-26364776D01*
X167343659Y-26201164D01*
X167128859Y-26069534D01*
X167012485Y-26021330D01*
X166896110Y-25973126D01*
X166651149Y-25914317D01*
X166400000Y-25894551D01*
X166148850Y-25914317D01*
X165903889Y-25973126D01*
X165671139Y-26069535D01*
X165456342Y-26201163D01*
X165264776Y-26364776D01*
X165101163Y-26556342D01*
X164969535Y-26771139D01*
X164873126Y-27003889D01*
X164814317Y-27248850D01*
X164794551Y-27499999D01*
X158900500Y-27499999D01*
X158900500Y-24624500D01*
X158920185Y-24557461D01*
X158972989Y-24511706D01*
X159024500Y-24500500D01*
X209275500Y-24500500D01*
X209342539Y-24520185D01*
G37*
G04 #@! TD.AperFunction*
M02*
