M48
; DRILL file {KiCad 7.0.2-0} date 2024 April 11, Thursday 22:45:21
; FORMAT={-:-/ absolute / metric / decimal}
; #@! TF.CreationDate,2024-04-11T22:45:21+02:00
; #@! TF.GenerationSoftware,Kicad,Pcbnew,7.0.2-0
; #@! TF.FileFunction,Plated,1,2,PTH
FMAT,2
METRIC
; #@! TA.AperFunction,Plated,PTH,ViaDrill
T1C0.400
; #@! TA.AperFunction,Plated,PTH,ComponentDrill
T2C0.600
; #@! TA.AperFunction,Plated,PTH,ComponentDrill
T3C0.700
; #@! TA.AperFunction,Plated,PTH,ComponentDrill
T4C0.800
; #@! TA.AperFunction,Plated,PTH,ComponentDrill
T5C1.000
; #@! TA.AperFunction,Plated,PTH,ComponentDrill
T6C1.100
; #@! TA.AperFunction,Plated,PTH,ComponentDrill
T7C1.220
; #@! TA.AperFunction,Plated,PTH,ComponentDrill
T8C1.300
; #@! TA.AperFunction,Plated,PTH,ComponentDrill
T9C1.420
; #@! TA.AperFunction,Plated,PTH,ComponentDrill
T10C1.430
; #@! TA.AperFunction,Plated,PTH,ComponentDrill
T11C2.000
%
G90
G05
T1
X170.6Y-65.1
X171.698Y-118.151
X172.073Y-98.514
X172.535Y-126.64
X172.742Y-79.684
X174.4Y-103.2
X176.0Y-134.9
X176.981Y-77.929
X177.239Y-80.4
X177.6Y-110.2
X177.905Y-83.176
X179.226Y-78.854
X180.758Y-82.5
X181.4Y-79.114
X181.569Y-116.695
X181.709Y-98.466
X183.617Y-127.598
X183.9Y-112.5
X186.45Y-74.841
X187.303Y-80.832
X187.374Y-79.4
X189.12Y-118.231
X190.029Y-61.385
X190.386Y-82.484
X191.3Y-101.8
X191.8Y-108.0
X192.0Y-98.4
X194.3Y-92.54
X195.4Y-110.4
X195.536Y-87.464
X196.9Y-121.0
X198.954Y-100.777
X199.375Y-101.9
X201.647Y-99.247
X201.893Y-97.693
X203.5Y-118.8
X207.252Y-129.776
X210.629Y-122.043
X213.125Y-92.308
X214.375Y-75.712
X216.044Y-126.889
T2
X170.427Y-81.4
X172.427Y-81.4
X187.427Y-76.5
X189.427Y-76.5
X202.6Y-75.7
X204.6Y-75.7
X204.9Y-86.9
X206.9Y-86.9
T3
X170.4Y-77.7
X170.6Y-116.9
X173.9Y-92.4
X176.1Y-138.8
X186.1Y-101.9
X192.9Y-127.7
X195.9Y-127.8
X217.97Y-144.05
T4
X170.3Y-102.29
X170.3Y-109.91
X170.4Y-59.99
X170.4Y-67.61
X170.4Y-69.9
X170.4Y-74.9
X170.6Y-120.49
X170.6Y-128.11
X170.6Y-138.99
X170.6Y-146.61
X170.6Y-148.79
X170.6Y-156.41
X170.79Y-136.4
X170.9Y-89.8
X170.9Y-99.8
X171.1Y-85.2
X171.1Y-87.74
X172.05Y-132.0
X173.39Y-59.1
X173.5Y-62.275
X173.5Y-64.815
X173.5Y-67.355
X173.5Y-69.895
X173.5Y-72.435
X173.5Y-74.975
X173.5Y-77.515
X173.89Y-141.3
X174.59Y-132.0
X174.99Y-80.4
X174.99Y-83.0
X174.99Y-86.1
X174.99Y-89.2
X175.83Y-94.76
X175.83Y-99.84
X176.39Y-92.2
X177.13Y-132.0
X178.37Y-97.3
X178.41Y-136.4
X181.0Y-130.79
X181.0Y-138.41
X181.01Y-59.1
X181.12Y-62.275
X181.12Y-64.815
X181.12Y-67.355
X181.12Y-69.895
X181.12Y-72.435
X181.12Y-74.975
X181.12Y-77.515
X181.43Y-94.76
X181.43Y-99.84
X181.51Y-141.3
X182.5Y-145.58
X182.5Y-153.2
X182.61Y-80.4
X182.61Y-83.0
X182.61Y-86.1
X182.61Y-89.2
X183.185Y-116.6
X183.185Y-124.22
X183.59Y-141.2
X183.73Y-61.26
X183.73Y-68.56
X183.9Y-130.79
X183.9Y-138.41
X183.97Y-97.3
X184.01Y-92.2
X184.3Y-73.2
X184.3Y-78.2
X185.3Y-80.39
X185.3Y-88.01
X185.725Y-116.6
X185.725Y-124.22
X186.2Y-108.6
X186.2Y-113.6
X186.27Y-58.72
X186.27Y-63.8
X186.27Y-66.02
X186.27Y-71.1
X186.5Y-90.49
X186.5Y-98.11
X186.8Y-130.79
X186.8Y-138.41
X188.265Y-116.6
X188.265Y-124.22
X189.09Y-97.6
X189.9Y-130.79
X189.9Y-138.41
X190.805Y-116.6
X190.805Y-124.22
X191.21Y-141.2
X191.49Y-58.8
X192.29Y-75.1
X192.29Y-78.1
X192.9Y-130.79
X192.9Y-138.41
X193.345Y-116.6
X193.345Y-124.22
X193.54Y-141.03
X195.885Y-116.6
X195.885Y-124.22
X195.94Y-130.72
X195.94Y-138.34
X196.71Y-97.6
X198.425Y-116.6
X198.425Y-124.22
X198.5Y-131.8
X198.5Y-137.4
X199.11Y-58.8
X199.91Y-75.1
X199.91Y-78.1
X201.04Y-129.26
X201.04Y-134.86
X201.06Y-118.73
X201.06Y-124.43
X201.1Y-115.4
X202.23Y-58.46
X202.23Y-63.54
X202.33Y-65.56
X202.33Y-70.64
X202.8Y-101.29
X202.8Y-108.91
X202.9Y-79.7
X203.5Y-83.1
X203.54Y-141.03
X203.58Y-131.8
X203.58Y-137.4
X203.6Y-121.27
X203.6Y-126.97
X204.0Y-91.38
X204.0Y-99.0
X204.77Y-61.0
X204.87Y-68.1
X206.1Y-131.7
X206.1Y-141.7
X206.14Y-118.73
X206.14Y-124.43
X207.2Y-91.39
X207.2Y-99.01
X207.4Y-69.19
X207.4Y-76.81
X207.9Y-79.7
X208.0Y-127.19
X208.0Y-134.81
X208.5Y-83.1
X208.7Y-117.79
X208.7Y-125.41
X210.0Y-136.7
X210.0Y-141.78
X210.59Y-83.1
X210.59Y-91.5
X210.59Y-94.6
X210.59Y-97.8
X210.59Y-128.1
X210.6Y-131.1
X210.6Y-134.1
X211.1Y-115.4
X211.47Y-87.3
X211.7Y-117.79
X211.7Y-125.41
X212.54Y-139.24
X214.01Y-87.3
X214.8Y-117.79
X214.8Y-125.41
X215.73Y-136.66
X215.73Y-141.74
X216.55Y-87.3
X217.8Y-117.79
X217.8Y-125.41
X217.9Y-108.08
X217.9Y-115.7
X218.21Y-83.1
X218.21Y-91.5
X218.21Y-94.6
X218.21Y-97.8
X218.21Y-128.1
X218.22Y-131.1
X218.22Y-134.1
X218.27Y-139.2
T5
X175.1Y-113.0
X177.6Y-113.0
X180.1Y-113.0
X189.325Y-94.675
X191.325Y-94.675
X191.8Y-72.425
X191.8Y-113.0
X193.325Y-94.675
X194.3Y-72.425
X194.3Y-113.0
X195.375Y-94.675
X196.8Y-72.425
X196.8Y-113.0
X197.375Y-94.675
X199.375Y-94.675
X208.5Y-113.0
X211.0Y-113.0
X212.96Y-62.84
X212.96Y-65.38
X212.96Y-67.92
X212.96Y-70.46
X212.96Y-73.0
X213.5Y-113.0
X215.5Y-62.84
X215.5Y-65.38
X215.5Y-67.92
X215.5Y-70.46
X215.5Y-73.0
T6
X207.4Y-59.09
X207.4Y-66.71
X210.36Y-79.82
X217.98Y-79.82
T7
X176.75Y-127.58
X176.75Y-155.98
X188.45Y-155.98
X200.15Y-155.98
X211.85Y-155.98
T9
X176.75Y-124.48
X176.75Y-152.88
X188.45Y-152.88
X200.15Y-152.88
X211.85Y-152.88
T10
X176.75Y-116.18
X176.75Y-144.58
X188.45Y-144.58
X200.15Y-144.58
X211.85Y-144.58
T8
G00X172.8Y-105.05
M15
G01X172.8Y-105.95
M16
G05
G00X182.4Y-105.05
M15
G01X182.4Y-105.95
M16
G05
G00X189.5Y-64.475
M15
G01X189.5Y-65.375
M16
G05
G00X189.5Y-105.05
M15
G01X189.5Y-105.95
M16
G05
G00X199.1Y-64.475
M15
G01X199.1Y-65.375
M16
G05
G00X199.1Y-105.05
M15
G01X199.1Y-105.95
M16
G05
G00X206.2Y-105.05
M15
G01X206.2Y-105.95
M16
G05
G00X215.8Y-105.05
M15
G01X215.8Y-105.95
M16
G05
T11
G00X187.975Y-85.075
M15
G01X187.975Y-84.275
M16
G05
G00X200.625Y-85.075
M15
G01X200.625Y-84.275
M16
G05
T0
M30
